<svg id="Gruppe_176" data-name="Gruppe 176" xmlns="http://www.w3.org/2000/svg" xmlns:xlink="http://www.w3.org/1999/xlink" width="122.156" height="65.887" viewBox="0 0 122.156 65.887">
  <defs>
    <clipPath id="clip-path">
      <rect id="Rechteck_173" data-name="Rechteck 173" width="122.156" height="65.887" fill="none"/>
    </clipPath>
  </defs>
  <path id="Pfad_135" data-name="Pfad 135" d="M182.355,172.976v-2.092h4.908V156.066l-4.347,3.1v-2.324l4.552-3.13h2.269v17.169h4.689v2.092Z" transform="translate(-142.39 -120.028)" fill="#0ff9dd"/>
  <g id="Gruppe_175" data-name="Gruppe 175">
    <g id="Gruppe_174" data-name="Gruppe 174" clip-path="url(#clip-path)">
      <path id="Pfad_136" data-name="Pfad 136" d="M265.365,162.316q0,4.826-1.7,7.368a5.655,5.655,0,0,1-5.024,2.542,5.58,5.58,0,0,1-4.99-2.529q-1.668-2.529-1.668-7.382,0-4.962,1.62-7.436a5.675,5.675,0,0,1,5.12-2.474,5.56,5.56,0,0,1,5.024,2.5q1.62,2.5,1.62,7.409m-2.5,0a14,14,0,0,0-.964-6.042,3.307,3.307,0,0,0-3.178-1.873,3.416,3.416,0,0,0-3.26,1.846q-.991,1.846-.991,6.07a13.474,13.474,0,0,0,1,6,3.607,3.607,0,0,0,6.377-.041,13.434,13.434,0,0,0,1.012-5.96" transform="translate(-196.759 -119.004)" fill="#0ff9dd"/>
      <path id="Pfad_137" data-name="Pfad 137" d="M331.089,172.976v-2.092H336V156.066l-4.347,3.1v-2.324l4.552-3.13h2.269v17.169h4.689v2.092Z" transform="translate(-258.529 -120.028)" fill="#0ff9dd"/>
      <g id="Pfad_138" data-name="Pfad 138" transform="translate(-1.171 -1.171)" fill="none">
        <path d="M22.028,29.689c-1.1-13.807,18.409-21.477,26.737-9.2,3.945-23.669,45.8-28.709,49.529,5.26,25.093-7.123,37.585,35.613,5.479,40.763-36.38.438-85.471,0-86.128.219C-3.5,65.521-5.7,28.483,22.028,29.689Z" stroke="none"/>
        <path d="M 17.61572074890137 63.71830368041992 C 18.45795631408691 63.66679000854492 20.25246047973633 63.66056442260742 24.83796310424805 63.66056442260742 C 28.13650321960449 63.66056442260742 32.43246078491211 63.66946792602539 37.40678405761719 63.67978668212891 C 44.15440368652344 63.69376754760742 52.55202102661133 63.71116638183594 61.33524322509766 63.71116638183594 C 78.36122894287109 63.71116638183594 92.16070556640625 63.64532470703125 103.5110168457031 63.50989151000977 C 106.5625457763672 62.99953842163086 109.2620697021484 62.09672546386719 111.5376663208008 60.8252067565918 C 113.6208190917969 59.66120529174805 115.3592834472656 58.18222808837891 116.7047424316406 56.42934799194336 C 117.9503631591797 54.80656814575195 118.8584442138672 52.95410537719727 119.4037246704102 50.92346572875977 C 119.9276428222656 48.97242736816406 120.1073455810547 46.90468597412109 119.9378204345703 44.77768707275391 C 119.5902404785156 40.41630554199219 117.7605438232422 36.12622451782227 114.9178848266602 33.00748443603516 C 113.4667053222656 31.41536712646484 111.8061447143555 30.17202568054199 109.9822998046875 29.31202697753906 C 108.0592422485352 28.40522575378418 105.9866790771484 27.9454460144043 103.8222045898438 27.9454460144043 C 102.2975845336914 27.9454460144043 100.7132415771484 28.17572593688965 99.11318206787109 28.62988662719727 L 95.69884490966797 29.59900665283203 L 95.31190490722656 26.07094573974609 C 94.90176391601562 22.33132553100586 93.97536468505859 18.97748565673828 92.55844116210938 16.10258674621582 C 91.27782440185547 13.50422668457031 89.59062194824219 11.28402614593506 87.543701171875 9.50368595123291 C 85.64098358154297 7.848766326904297 83.43714141845703 6.578446388244629 80.99344635009766 5.728006362915039 C 78.65130615234375 4.912926197052002 76.14574432373047 4.499646186828613 73.54636383056641 4.499646186828613 C 71.00974273681641 4.499646186828613 68.48678588867188 4.891666412353516 66.04758453369141 5.664786338806152 C 63.60652160644531 6.438506126403809 61.36172103881836 7.558646202087402 59.37552261352539 8.994106292724609 C 57.34614181518555 10.46076583862305 55.66386413574219 12.2042064666748 54.37536239624023 14.17598628997803 C 53.0233039855957 16.24504661560059 52.13122177124023 18.53336715698242 51.72388076782227 20.97734642028809 L 50.49148178100586 28.37170600891113 L 46.28228378295898 22.16864585876465 C 45.17472076416016 20.53646659851074 43.79356384277344 19.29328536987305 42.17714309692383 18.47368621826172 C 40.6869010925293 17.71804618835449 39.03610229492188 17.33490562438965 37.27062225341797 17.33490562438965 C 33.74282455444336 17.33490562438965 30.21298217773438 18.8760871887207 27.82826232910156 21.45756721496582 C 26.38122177124023 23.02398681640625 24.71910285949707 25.68236541748047 25.01822280883789 29.45136642456055 L 25.28662300109863 32.83316802978516 L 21.89736175537109 32.68588638305664 C 21.49524307250977 32.66840744018555 21.10988235473633 32.65990447998047 20.71924209594727 32.65990447998047 C 17.99198341369629 32.65990447998047 15.5288028717041 33.09204483032227 13.39812278747559 33.94430541992188 C 11.49984264373779 34.70360565185547 9.857682228088379 35.79972457885742 8.51726245880127 37.20222473144531 C 6.046382427215576 39.78750610351562 4.622882843017578 43.41374588012695 4.509002685546875 47.41294479370117 C 4.394462585449219 51.43572616577148 5.632802486419678 55.4610481262207 7.906502723693848 58.45676803588867 C 9.588497161865234 60.67287826538086 12.63256740570068 63.36845779418945 17.61572074890137 63.71830368041992 M 17.64450263977051 66.72612762451172 C -3.164595127105713 65.54011535644531 -5.616798877716064 29.65991592407227 20.71923446655273 29.65991592407227 C 21.14888381958008 29.65991592407227 21.58260154724121 29.66935729980469 22.02762222290039 29.68870544433594 C 20.93184471130371 15.88184642791748 40.43676376342773 8.21138858795166 48.76470184326172 20.48414611816406 C 52.70952606201172 -3.184749603271484 94.568359375 -8.225339889526367 98.29402160644531 25.74388694763184 C 100.2146224975586 25.19873809814453 102.0635986328125 24.9454517364502 103.8222122192383 24.9454517364502 C 125.0405731201172 24.9454517364502 133.4219818115234 61.75097274780273 103.7729415893555 66.50696563720703 C 75.63532257080078 66.84597015380859 39.89318466186523 66.66057586669922 24.83796119689941 66.66056823730469 C 20.42784690856934 66.66056823730469 17.7934627532959 66.67647552490234 17.64450263977051 66.72612762451172 Z" stroke="none" fill="#0ff9dd"/>
      </g>
    </g>
  </g>
</svg>
