<svg id="Gruppe_117" data-name="Gruppe 117" xmlns="http://www.w3.org/2000/svg" xmlns:xlink="http://www.w3.org/1999/xlink" width="145.422" height="69.405" viewBox="0 0 145.422 69.405">
  <defs>
    <clipPath id="clip-path">
      <rect id="Rechteck_128" data-name="Rechteck 128" width="145.422" height="69.405" fill="none" stroke="#707070" stroke-width="3"/>
    </clipPath>
  </defs>
  <g id="Gruppe_116" data-name="Gruppe 116" clip-path="url(#clip-path)">
    <path id="Pfad_92" data-name="Pfad 92" d="M5.5,312.152c1.2,2.4,18.977,4.794,29.486,0,5.98-3.261,16.828-5.184,28.232,0,10.8,5.393,22.384,3.6,32.771-.2,9.788-4,18.577-3.8,27.6.451,9.355,4.343,20.741,2.944,25.136-.651" transform="translate(-4.401 -247.232)" fill="none" stroke="#0ff9dd" stroke-linecap="round" stroke-linejoin="round" stroke-width="3"/>
    <path id="Pfad_93" data-name="Pfad 93" d="M63.545,241.358,50.5,218H177.178s2.286,15.167-8.822,24.17" transform="translate(-40.412 -174.454)" fill="none" stroke="#0ff9dd" stroke-linecap="round" stroke-linejoin="round" stroke-width="3"/>
    <path id="Pfad_94" data-name="Pfad 94" d="M436.667,132.508v-21.34l28.731.366v20.974" transform="translate(-349.44 -88.961)" fill="none" stroke="#0ff9dd" stroke-linecap="round" stroke-linejoin="round" stroke-width="3"/>
    <line id="Linie_26" data-name="Linie 26" x2="12.296" transform="translate(96.571 31.362)" fill="none" stroke="#0ff9dd" stroke-linecap="round" stroke-linejoin="round" stroke-width="3"/>
    <line id="Linie_27" data-name="Linie 27" y1="21.303" transform="translate(102.586 1.099)" fill="none" stroke="#0ff9dd" stroke-linecap="round" stroke-linejoin="round" stroke-width="3"/>
    <line id="Linie_28" data-name="Linie 28" x2="16.324" transform="translate(94.584 1.199)" fill="none" stroke="#0ff9dd" stroke-linecap="round" stroke-linejoin="round" stroke-width="3"/>
    <line id="Linie_29" data-name="Linie 29" x2="12.431" transform="translate(96.684 8.287)" fill="none" stroke="#0ff9dd" stroke-linecap="round" stroke-linejoin="round" stroke-width="3"/>
    <path id="Pfad_95" data-name="Pfad 95" d="M185.556,172.386V161h50.161" transform="translate(-148.49 -128.84)" fill="none" stroke="#0ff9dd" stroke-linecap="round" stroke-linejoin="round" stroke-width="3"/>
    <rect id="Rechteck_123" data-name="Rechteck 123" width="12.385" height="9.743" transform="translate(37.055 18.822)" fill="none" stroke="#0ff9dd" stroke-linecap="round" stroke-linejoin="round" stroke-width="3"/>
    <rect id="Rechteck_124" data-name="Rechteck 124" width="12.385" height="9.743" transform="translate(44.845 5.439)" fill="none" stroke="#0ff9dd" stroke-linecap="round" stroke-linejoin="round" stroke-width="3"/>
    <rect id="Rechteck_125" data-name="Rechteck 125" width="12.385" height="9.743" transform="translate(62.024 5.439)" fill="none" stroke="#0ff9dd" stroke-linecap="round" stroke-linejoin="round" stroke-width="3"/>
    <rect id="Rechteck_126" data-name="Rechteck 126" width="12.385" height="9.743" transform="translate(54.034 18.822)" fill="none" stroke="#0ff9dd" stroke-linecap="round" stroke-linejoin="round" stroke-width="3"/>
    <rect id="Rechteck_127" data-name="Rechteck 127" width="12.385" height="9.743" transform="translate(70.813 18.822)" fill="none" stroke="#0ff9dd" stroke-linecap="round" stroke-linejoin="round" stroke-width="3"/>
  </g>
</svg>
