<svg id="Gruppe_133" data-name="Gruppe 133" xmlns="http://www.w3.org/2000/svg" xmlns:xlink="http://www.w3.org/1999/xlink" width="116.663" height="106.217" viewBox="0 0 116.663 106.217">
  <defs>
    <clipPath id="clip-path">
      <rect id="Rechteck_137" data-name="Rechteck 137" width="116.663" height="106.217" fill="none" stroke="#707070" stroke-width="3"/>
    </clipPath>
  </defs>
  <path id="Pfad_113" data-name="Pfad 113" d="M151.034,186.49V150.072L184.4,133.84l32.283,15.9v35.6l-32.823,18.672-32.823-17.439" transform="translate(-127.76 -113.215)" fill="none" stroke="#0ff9dd" stroke-linecap="round" stroke-linejoin="round" stroke-width="3"/>
  <path id="Pfad_114" data-name="Pfad 114" d="M396.857,237.007l-32.823,16.566v37.7" transform="translate(-307.938 -200.485)" fill="none" stroke="#0ff9dd" stroke-linecap="round" stroke-linejoin="round" stroke-width="3"/>
  <line id="Linie_36" data-name="Linie 36" x2="32.823" y2="16.232" transform="translate(23.274 36.856)" fill="none" stroke="#0ff9dd" stroke-linecap="round" stroke-linejoin="round" stroke-width="3"/>
  <path id="Pfad_115" data-name="Pfad 115" d="M235.643,175.943l32.643,16.086V205.3l8.176-3.711V187.9l-32.557-15.979" transform="translate(-199.331 -145.43)" fill="none" stroke="#0ff9dd" stroke-linecap="round" stroke-linejoin="round" stroke-width="3"/>
  <line id="Linie_37" data-name="Linie 37" x2="9.888" y2="4.456" transform="translate(27.717 63.656)" fill="none" stroke="#0ff9dd" stroke-linecap="round" stroke-linejoin="round" stroke-width="3"/>
  <line id="Linie_38" data-name="Linie 38" x2="5.873" y2="2.781" transform="translate(27.571 68.413)" fill="none" stroke="#0ff9dd" stroke-linecap="round" stroke-linejoin="round" stroke-width="3"/>
  <g id="Gruppe_132" data-name="Gruppe 132">
    <g id="Gruppe_131" data-name="Gruppe 131" clip-path="url(#clip-path)">
      <path id="Pfad_116" data-name="Pfad 116" d="M658.967,372.032,664.7,382.1l8.694-9.7" transform="translate(-557.422 -314.703)" fill="none" stroke="#0ff9dd" stroke-linecap="round" stroke-linejoin="round" stroke-width="3"/>
      <path id="Pfad_117" data-name="Pfad 117" d="M58.511,4.5A54.02,54.02,0,0,0,40.173,109.33" transform="translate(-3.807 -3.807)" fill="none" stroke="#0ff9dd" stroke-linecap="round" stroke-linejoin="round" stroke-width="3"/>
      <path id="Pfad_118" data-name="Pfad 118" d="M407.7,70.223A53.911,53.911,0,0,0,355,4.5" transform="translate(-300.295 -3.807)" fill="none" stroke="#0ff9dd" stroke-linecap="round" stroke-linejoin="round" stroke-width="3"/>
      <line id="Linie_39" data-name="Linie 39" y1="9.701" x2="8.694" transform="translate(107.272 57.697)" fill="none" stroke="#0ff9dd" stroke-linecap="round" stroke-linejoin="round" stroke-width="3"/>
    </g>
  </g>
</svg>
