<svg xmlns="http://www.w3.org/2000/svg" xmlns:xlink="http://www.w3.org/1999/xlink" width="91.347" height="102.856" viewBox="0 0 91.347 102.856">
  <defs>
    <clipPath id="clip-path">
      <rect id="Rechteck_138" data-name="Rechteck 138" width="91.347" height="102.856" fill="none" stroke="#707070" stroke-width="3"/>
    </clipPath>
  </defs>
  <g id="Gruppe_135" data-name="Gruppe 135" transform="translate(-1053 -402)">
    <g id="Gruppe_134" data-name="Gruppe 134" transform="translate(1053 402)" clip-path="url(#clip-path)">
      <ellipse id="Ellipse_3" data-name="Ellipse 3" cx="18.595" cy="50.339" rx="18.595" ry="50.339" transform="translate(27.08 1.089)" fill="none" stroke="#0ff9dd" stroke-width="3"/>
      <ellipse id="Ellipse_4" data-name="Ellipse 4" cx="50.339" cy="18.595" rx="50.339" ry="18.595" transform="translate(-7.219 60.505) rotate(-30)" fill="none" stroke="#0ff9dd" stroke-width="3"/>
      <path id="Pfad_119" data-name="Pfad 119" d="M145.722,319.9c4.272,6.35,5.71,11.982,3.407,15.748-5.357,8.762-28.928,4.109-52.647-10.392a113.145,113.145,0,0,1-24.924-20.123" transform="translate(-60.423 -257.654)" fill="none" stroke="#0ff9dd" stroke-width="3"/>
      <path id="Pfad_120" data-name="Pfad 120" d="M14.9,154.512c-3.77-5.947-4.949-11.2-2.766-14.767,5.357-8.762,28.928-4.109,52.647,10.392a114.192,114.192,0,0,1,24.447,19.595" transform="translate(-9.329 -114.263)" fill="none" stroke="#0ff9dd" stroke-width="3"/>
      <circle id="Ellipse_5" data-name="Ellipse 5" cx="6.224" cy="6.224" r="6.224" transform="translate(39.062 45.281)" fill="none" stroke="#0ff9dd" stroke-width="3"/>
      <circle id="Ellipse_6" data-name="Ellipse 6" cx="4.59" cy="4.59" r="4.59" transform="translate(78.43 53.995)" fill="none" stroke="#0ff9dd" stroke-width="3"/>
      <circle id="Ellipse_7" data-name="Ellipse 7" cx="4.59" cy="4.59" r="4.59" transform="translate(3.273 39.835)" fill="none" stroke="#0ff9dd" stroke-width="3"/>
    </g>
  </g>
</svg>
