<svg id="Komponente_49_9" data-name="Komponente 49 – 9" xmlns="http://www.w3.org/2000/svg" xmlns:xlink="http://www.w3.org/1999/xlink" width="46.989" height="37.713" viewBox="0 0 46.989 37.713">
  <defs>
    <clipPath id="clip-path">
      <rect id="Rechteck_49" data-name="Rechteck 49" width="46.989" height="37.713" fill="none" stroke="#707070" stroke-width="1.8"/>
    </clipPath>
  </defs>
  <g id="Gruppe_88" data-name="Gruppe 88" clip-path="url(#clip-path)">
    <g id="Pfad_56" data-name="Pfad 56" transform="translate(-6.962 -145.833)" fill="none">
      <path d="M7.5,168.087a10.223,10.223,0,0,1,7.812-10.348,31.073,31.073,0,0,1,12.47,0c2.495.659,6.674,1.731,8.176,6.24,1.42,4.261.812,9.638-3.145,12.276-3.652,2.435-10.754,3.348-13.7,2.638-3.754,3.957-9.232,4.87-9.334,3.551s1.319-6.189,1.319-6.189C7.45,173.413,7.5,168.087,7.5,168.087Z" stroke="none"/>
      <path d="M 21.33692741394043 158.9034118652344 C 19.15740776062012 158.9034118652344 17.18057823181152 159.1077575683594 15.77057838439941 159.4788055419922 C 14.52875900268555 159.8056030273438 12.75222015380859 160.5375213623047 11.34101867675781 162.1686706542969 C 10.00764465332031 163.7098388671875 9.321132659912109 165.7041931152344 9.300468444824219 168.0988006591797 C 9.300777435302734 168.198974609375 9.341602325439453 172.6040649414062 12.20726776123047 174.8328552246094 L 13.17262840270996 175.5836791992188 L 12.83017730712891 176.7577209472656 C 12.41094970703125 178.1950073242188 11.96875762939453 179.9506072998047 11.73837661743164 181.1275787353516 C 13.31786727905273 180.8312377929688 15.86285209655762 179.7064208984375 17.81128883361816 177.6526794433594 L 18.52766799926758 176.8975830078125 L 19.53945732116699 177.1417999267578 C 20.03058815002441 177.2603454589844 20.75716781616211 177.3256378173828 21.5853385925293 177.3256378173828 C 24.67596817016602 177.3256378173828 29.31159782409668 176.425048828125 31.81513786315918 174.7560119628906 C 33.63518905639648 173.5426483154297 34.35697937011719 171.6902618408203 34.6419792175293 170.3499603271484 C 35.02965927124023 168.5268707275391 34.89083862304688 166.4659423828125 34.2510871887207 164.5468139648438 C 33.06759643554688 160.9963531494141 29.78100967407227 160.1279602050781 27.38124847412109 159.493896484375 L 27.32226753234863 159.4783020019531 C 26.23960876464844 159.1921539306641 23.96901893615723 158.9034118652344 21.33692741394043 158.9034118652344 M 21.33692359924316 157.1034088134766 C 23.92937660217285 157.1034088134766 26.40653419494629 157.3744506835938 27.78222846984863 157.7380676269531 C 30.27717781066895 158.3975524902344 34.45592880249023 159.4692687988281 35.95871734619141 163.9775848388672 C 37.37915802001953 168.2386779785156 36.77037811279297 173.6158447265625 32.8135986328125 176.2537078857422 C 29.16127777099609 178.6885986328125 22.05929374694824 179.6017150878906 19.11711883544922 178.8915557861328 C 15.36321449279785 182.8483123779297 9.884696960449219 183.7614135742188 9.783187866210938 182.4425048828125 C 9.681739807128906 181.1235656738281 11.10218811035156 176.2537078857422 11.10218811035156 176.2537078857422 C 7.449718475341797 173.4129638671875 7.500507354736328 168.0865325927734 7.500507354736328 168.0865325927734 C 7.551158905029297 161.9484405517578 11.45721817016602 158.7525939941406 15.31249809265137 157.7380676269531 C 17.04203605651855 157.2829284667969 19.22772407531738 157.1034088134766 21.33692359924316 157.1034088134766 Z" stroke="none" fill="#0ff9dd"/>
    </g>
    <path id="Pfad_57" data-name="Pfad 57" d="M234.484,17.558c1.24-8.314,7.83-9.625,11.7-9.911,5.975-.442,11.116-.1,14.6,4,3.963,4.955,1.063,11.435-1.74,13.532-.677,2.668,1.554,5.71,1.74,5.908,1.16,1.239-1.74,1.048-5.22,0a10.084,10.084,0,0,1-4.446-3.145l-4.156.1" transform="translate(-217.662 -5.395)" fill="none" stroke="#0ff9dd" stroke-width="1.8"/>
    <line id="Linie_1" data-name="Linie 1" y2="2.976" transform="translate(15.135 16.258)" fill="none" stroke="#0ff9dd" stroke-width="1.8"/>
    <line id="Linie_2" data-name="Linie 2" x2="9.858" transform="translate(10.215 19.048)" fill="none" stroke="#0ff9dd" stroke-width="1.8"/>
    <path id="Pfad_58" data-name="Pfad 58" d="M170.753,268.04c.71,3.652-3,7.833-5.738,9.152" transform="translate(-153.177 -248.811)" fill="none" stroke="#0ff9dd" stroke-width="1.8"/>
    <path id="Pfad_59" data-name="Pfad 59" d="M174.9,313.594c-.1,2.536,4.87,4.667,5.682,4.464" transform="translate(-162.347 -291.097)" fill="none" stroke="#0ff9dd" stroke-width="1.8"/>
    <path id="Pfad_60" data-name="Pfad 60" d="M396.465,91.768l-3.591-9.342-2.865,6.66-1.288,2.682" transform="translate(-361.51 -74.594)" fill="none" stroke="#0ff9dd" stroke-width="1.8"/>
    <line id="Linie_3" data-name="Linie 3" y1="0.012" x2="4.867" transform="translate(28.961 14.221)" fill="none" stroke="#0ff9dd" stroke-width="1.8"/>
  </g>
</svg>
