<svg id="Komponente_50_9" data-name="Komponente 50 – 9" xmlns="http://www.w3.org/2000/svg" xmlns:xlink="http://www.w3.org/1999/xlink" width="33.259" height="37.713" viewBox="0 0 33.259 37.713">
  <defs>
    <clipPath id="clip-path">
      <rect id="Rechteck_33" data-name="Rechteck 33" width="33.259" height="37.713" fill="none" stroke="#707070" stroke-width="1.8"/>
    </clipPath>
  </defs>
  <g id="Gruppe_82" data-name="Gruppe 82" clip-path="url(#clip-path)">
    <g id="Pfad_61" data-name="Pfad 61" transform="translate(8.785 2.234)" fill="none">
      <path d="M7.841,0a8.508,8.508,0,0,1,3.828.938,7.219,7.219,0,0,1,4.014,6.446,7.623,7.623,0,0,1-7.841,7.384A7.623,7.623,0,0,1,0,7.384,7.623,7.623,0,0,1,7.841,0Z" stroke="none"/>
      <path d="M 7.841364860534668 1.800004005432129 C 4.51014518737793 1.800004005432129 1.799994468688965 4.304994583129883 1.799994468688965 7.384054183959961 C 1.799994468688965 10.46311378479004 4.51014518737793 12.96810436248779 7.841364860534668 12.96810436248779 C 11.17258453369141 12.96810436248779 13.88272476196289 10.46311378479004 13.88272476196289 7.384054183959961 C 13.88272476196289 5.350934028625488 12.68220520019531 3.413594245910645 10.89538478851318 2.563234329223633 L 10.88489532470703 2.558194160461426 C 9.80118465423584 2.033843994140625 8.86253547668457 1.800004005432129 7.841364860534668 1.800004005432129 M 7.841364860534668 3.814697265625e-06 C 9.118915557861328 3.814697265625e-06 10.32510471343994 0.2877044677734375 11.66888427734375 0.9379043579101562 C 13.93782520294189 2.017704010009766 15.68272495269775 4.508994102478027 15.68272495269775 7.384054183959961 C 15.68272495269775 11.46215438842773 12.17203521728516 14.76810455322266 7.841364860534668 14.76810455322266 C 3.51069450378418 14.76810455322266 -4.76837158203125e-06 11.46215438842773 -4.76837158203125e-06 7.384054183959961 C -4.76837158203125e-06 3.305953979492188 3.51069450378418 3.814697265625e-06 7.841364860534668 3.814697265625e-06 Z" stroke="none" fill="#0ff9dd"/>
    </g>
    <g id="Pfad_50" data-name="Pfad 50" transform="translate(-17.231 -265.041)" fill="none">
      <path d="M48.978,301.555c-1.356-7.774-7.605-15.055-15.12-15.055-7.538,0-13.79,7.246-15.12,15.055Z" stroke="none"/>
      <path d="M 46.70001602172852 299.7551879882812 C 45.86223602294922 296.9968566894531 44.36196136474609 294.3800964355469 42.42634201049805 292.3567810058594 C 41.19970321655273 291.0745544433594 39.85058975219727 290.0729675292969 38.41646957397461 289.3798522949219 C 36.93390274047852 288.663330078125 35.40013122558594 288.2999877929688 33.85776138305664 288.2999877929688 C 32.30747985839844 288.2999877929688 30.76802062988281 288.6621704101562 29.28216171264648 289.37646484375 C 27.84474182128906 290.0674438476562 26.49471092224121 291.0660400390625 25.26955223083496 292.344482421875 C 23.3314094543457 294.3669128417969 21.83451271057129 296.9886474609375 21.00609588623047 299.7551879882812 L 46.70001602172852 299.7551879882812 M 48.97751998901367 301.55517578125 L 18.73800086975098 301.55517578125 C 20.06814193725586 293.7457885742188 26.3198413848877 286.5 33.85776138305664 286.5 C 41.37244033813477 286.5 47.62117004394531 293.7815856933594 48.97751998901367 301.55517578125 Z" stroke="none" fill="#0ff9dd"/>
    </g>
  </g>
</svg>
